# xmcd
#
# Track frame offsets: 
#        150
#        12745
#        23967
#        35427
#        48795
#        57087
#        70412
#        80425
#        94850
#        108667
#        120420
#        133765
#        146360
#        158030
#        168577
#        180030
#        191337
#        204180
#        219300
#        231610
#        247117
#        262225
#        275607
#        288892
#        299572
#        312172
#
# Disc length: 4351 seconds
#
# Revision: 0
# Processed by: cddbd v1.5.2PL0 Copyright (c) Steve Scherf et al.
# Submitted via: ExactAudioCopy v1.3
#
DISCID=8110fd1a
DTITLE=Merle Haggard - Hag-The Studio Recordings 1969-1976 [CD2)
DYEAR=2007
DGENRE=Country
TTITLE0=Worried, Unhappy, Lonesome And Sorry
TTITLE1=Somewhere in Between
TTITLE2=The Sidewalks of Chicago
TTITLE3=The Farmer's Daughter
TTITLE4=Tulare Dust
TTITLE5=When The Feelin' Goes Away
TTITLE6=Soldier's Last Latter
TTITLE7=The Only Trouble With Me
TTITLE8=Making Believe
TTITLE9=Big Time Annie's Square
TTITLE10=You're The Only Girl in The Game
TTITLE11=The Conversion of Ronnie Jones
TTITLE12=Carolyn
TTITLE13=It's Great to Be Alive
TTITLE14=Someday We'll Look Back
TTITLE15=Somewhere in Between
TTITLE16=My Heart Would Know
TTITLE17=Daddy Frank (The Guitar Man)
TTITLE18=Goodbye Comes Hard For Me
TTITLE19=The Man Who Picked The Wildwood Flower
TTITLE20=You Don't Love Me (But I'll Always Care)
TTITLE21=This Cold War With You
TTITLE22=Irma Jackson
TTITLE23=Recitation -The Proudest Fiddle In The World
TTITLE24=Turnin' Off a Memory
TTITLE25=Grandma Harp
EXTD=
EXTT0=
EXTT1=
EXTT2=
EXTT3=
EXTT4=
EXTT5=
EXTT6=
EXTT7=
EXTT8=
EXTT9=
EXTT10=
EXTT11=
EXTT12=
EXTT13=
EXTT14=
EXTT15=
EXTT16=
EXTT17=
EXTT18=
EXTT19=
EXTT20=
EXTT21=
EXTT22=
EXTT23=
EXTT24=
EXTT25=
PLAYORDER=
